<svg width="22" height="23" viewBox="0 0 22 23" fill="none" xmlns="http://www.w3.org/2000/svg">
<path d="M-0.25 0.5C-0.448912 0.5 -0.639678 0.579018 -0.78033 0.71967C-0.920982 0.860322 -1 1.05109 -1 1.25C-1 1.44891 -0.920982 1.63968 -0.78033 1.78033C-0.639678 1.92098 -0.448912 2 -0.25 2H1.415L2.0165 4.4105L4.2635 16.388C4.29567 16.5599 4.38688 16.7151 4.52137 16.8268C4.65585 16.9386 4.82515 16.9998 5 17H6.5C5.70435 17 4.94129 17.3161 4.37868 17.8787C3.81607 18.4413 3.5 19.2044 3.5 20C3.5 20.7956 3.81607 21.5587 4.37868 22.1213C4.94129 22.6839 5.70435 23 6.5 23C7.29565 23 8.05871 22.6839 8.62132 22.1213C9.18393 21.5587 9.5 20.7956 9.5 20C9.5 19.2044 9.18393 18.4413 8.62132 17.8787C8.05871 17.3161 7.29565 17 6.5 17H17C16.2044 17 15.4413 17.3161 14.8787 17.8787C14.3161 18.4413 14 19.2044 14 20C14 20.7956 14.3161 21.5587 14.8787 22.1213C15.4413 22.6839 16.2044 23 17 23C17.7957 23 18.5587 22.6839 19.1213 22.1213C19.6839 21.5587 20 20.7956 20 20C20 19.2044 19.6839 18.4413 19.1213 17.8787C18.5587 17.3161 17.7957 17 17 17H18.5C18.6749 16.9998 18.8442 16.9386 18.9786 16.8268C19.1131 16.7151 19.2043 16.5599 19.2365 16.388L21.4865 4.388C21.5068 4.27976 21.5029 4.16838 21.4753 4.06178C21.4477 3.95518 21.3969 3.85597 21.3266 3.77121C21.2563 3.68644 21.1682 3.6182 21.0685 3.57133C20.9689 3.52445 20.8601 3.5001 20.75 3.5H3.335L2.7275 1.0685C2.68701 0.906176 2.59342 0.762048 2.4616 0.659037C2.32978 0.556026 2.1673 0.500046 2 0.5H-0.25ZM8 20C8 20.3978 7.84196 20.7794 7.56066 21.0607C7.27936 21.342 6.89783 21.5 6.5 21.5C6.10218 21.5 5.72065 21.342 5.43934 21.0607C5.15804 20.7794 5 20.3978 5 20C5 19.6022 5.15804 19.2206 5.43934 18.9393C5.72065 18.658 6.10218 18.5 6.5 18.5C6.89783 18.5 7.27936 18.658 7.56066 18.9393C7.84196 19.2206 8 19.6022 8 20ZM18.5 20C18.5 20.3978 18.342 20.7794 18.0607 21.0607C17.7794 21.342 17.3978 21.5 17 21.5C16.6022 21.5 16.2206 21.342 15.9393 21.0607C15.658 20.7794 15.5 20.3978 15.5 20C15.5 19.6022 15.658 19.2206 15.9393 18.9393C16.2206 18.658 16.6022 18.5 17 18.5C17.3978 18.5 17.7794 18.658 18.0607 18.9393C18.342 19.2206 18.5 19.6022 18.5 20ZM12.5 7.25V9.5H14.75C14.9489 9.5 15.1397 9.57902 15.2803 9.71967C15.421 9.86032 15.5 10.0511 15.5 10.25C15.5 10.4489 15.421 10.6397 15.2803 10.7803C15.1397 10.921 14.9489 11 14.75 11H12.5V13.25C12.5 13.4489 12.421 13.6397 12.2803 13.7803C12.1397 13.921 11.9489 14 11.75 14C11.5511 14 11.3603 13.921 11.2197 13.7803C11.079 13.6397 11 13.4489 11 13.25V11H8.75C8.55109 11 8.36032 10.921 8.21967 10.7803C8.07902 10.6397 8 10.4489 8 10.25C8 10.0511 8.07902 9.86032 8.21967 9.71967C8.36032 9.57902 8.55109 9.5 8.75 9.5H11V7.25C11 7.05109 11.079 6.86032 11.2197 6.71967C11.3603 6.57902 11.5511 6.5 11.75 6.5C11.9489 6.5 12.1397 6.57902 12.2803 6.71967C12.421 6.86032 12.5 7.05109 12.5 7.25Z" fill="#6A0F65"/>
</svg>
