<svg width="51" height="64" viewBox="0 0 51 64" fill="none" xmlns="http://www.w3.org/2000/svg">
<path d="M10.6963 22.7635C14.4949 10.6849 20.4598 5.91212 28.5836 8.44765L30.6771 1.79162C26.2929 0.411026 22.2132 0.247952 18.4245 1.3057C14.6153 2.37276 11.2793 4.51154 8.43281 7.73138C5.58173 10.9492 3.3837 15.0198 1.83476 19.9424C-0.563085 27.5656 -0.610064 34.187 1.69052 39.8092C3.9964 45.4255 8.45796 49.2877 15.0778 51.3945L17.1726 44.7379C9.05808 42.1544 6.90239 34.828 10.6963 22.7635Z" fill="#BDBA1A"/>
<path d="M39.4519 41.5617C35.6354 53.635 29.6653 58.3998 21.5441 55.853L19.4414 62.5043C23.8215 63.8916 27.902 64.0613 31.6933 63.0089C35.5038 61.9472 38.8432 59.8124 41.6936 56.5972C44.55 53.3833 46.7546 49.3154 48.3088 44.3942C50.7179 36.7743 50.7729 30.1529 48.4796 24.5273C46.1843 18.9097 41.7273 15.0415 35.1101 12.9241L33.0073 19.5787C41.1173 22.1742 43.2624 29.5025 39.4519 41.5617Z" fill="#BDBA1A"/>
<path d="M30.6783 1.79457L35.1101 12.9279L19.4367 62.5234L15.079 51.3975L30.6783 1.79457Z" fill="#6B6921"/>
</svg>
