<svg width="33" height="33" viewBox="0 0 33 33" fill="none" xmlns="http://www.w3.org/2000/svg">
<path d="M21.5401 16.5C21.5401 17.8261 21.0133 19.0979 20.0756 20.0355C19.138 20.9732 17.8662 21.5 16.5401 21.5C15.214 21.5 13.9422 20.9732 13.0046 20.0355C12.0669 19.0979 11.5401 17.8261 11.5401 16.5C11.5401 16.215 11.5701 15.9367 11.6218 15.6667H9.87343V22.3283C9.87343 22.7917 10.2484 23.1667 10.7118 23.1667H22.3701C22.5922 23.1662 22.805 23.0777 22.9618 22.9205C23.1187 22.7634 23.2068 22.5504 23.2068 22.3283V15.6667H21.4584C21.5101 15.9367 21.5401 16.215 21.5401 16.5ZM16.5401 19.8333C16.9779 19.8332 17.4115 19.7469 17.816 19.5792C18.2204 19.4116 18.5879 19.1659 18.8975 18.8562C19.207 18.5465 19.4525 18.1789 19.62 17.7743C19.7874 17.3698 19.8735 16.9362 19.8734 16.4983C19.8733 16.0605 19.787 15.6269 19.6193 15.2225C19.4517 14.818 19.206 14.4505 18.8963 14.141C18.5866 13.8314 18.219 13.5859 17.8144 13.4185C17.4099 13.251 16.9763 13.1649 16.5384 13.165C15.6542 13.1652 14.8062 13.5167 14.1811 14.1421C13.5559 14.7676 13.2049 15.6157 13.2051 16.5C13.2053 17.3843 13.5568 18.2322 14.1822 18.8574C14.8077 19.4825 15.6558 19.8336 16.5401 19.8333ZM20.5401 13H22.5384C22.6712 13 22.7985 12.9474 22.8926 12.8537C22.9866 12.7599 23.0397 12.6328 23.0401 12.5V10.5017C23.0401 10.3686 22.9872 10.241 22.8932 10.1469C22.7991 10.0529 22.6715 10 22.5384 10H20.5401C20.407 10 20.2794 10.0529 20.1854 10.1469C20.0913 10.241 20.0384 10.3686 20.0384 10.5017V12.5C20.0401 12.775 20.2651 13 20.5401 13ZM16.5401 0.5C12.2966 0.5 8.22697 2.18571 5.22639 5.18629C2.22581 8.18687 0.5401 12.2565 0.5401 16.5C0.5401 20.7435 2.22581 24.8131 5.22639 27.8137C8.22697 30.8143 12.2966 32.5 16.5401 32.5C18.6413 32.5 20.7218 32.0861 22.663 31.2821C24.6042 30.478 26.3681 29.2994 27.8538 27.8137C29.3395 26.328 30.5181 24.5641 31.3222 22.6229C32.1262 20.6817 32.5401 18.6012 32.5401 16.5C32.5401 14.3989 32.1262 12.3183 31.3222 10.3771C30.5181 8.43586 29.3395 6.67203 27.8538 5.18629C26.3681 3.70055 24.6042 2.522 22.663 1.71793C20.7218 0.913852 18.6413 0.5 16.5401 0.5ZM24.8734 22.9817C24.8734 24 24.0401 24.8333 23.0218 24.8333H10.0584C9.0401 24.8333 8.20677 24 8.20677 22.9817V10.0183C8.20677 9 9.0401 8.16667 10.0584 8.16667H23.0218C24.0401 8.16667 24.8734 9 24.8734 10.0183V22.9817Z" fill="#B1B1B1"/>
</svg>
