<svg width="33" height="33" viewBox="0 0 33 33" fill="none" xmlns="http://www.w3.org/2000/svg">
<path d="M16.5401 0.5C7.70343 0.5 0.5401 7.66333 0.5401 16.5C0.5401 25.3367 7.70343 32.5 16.5401 32.5C25.3768 32.5 32.5401 25.3367 32.5401 16.5C32.5401 7.66333 25.3768 0.5 16.5401 0.5ZM12.6234 23.1317H9.38343V12.705H12.6234V23.1317ZM10.9834 11.425C9.9601 11.425 9.29843 10.7 9.29843 9.80333C9.29843 8.88833 9.9801 8.185 11.0251 8.185C12.0701 8.185 12.7101 8.88833 12.7301 9.80333C12.7301 10.7 12.0701 11.425 10.9834 11.425ZM24.4568 23.1317H21.2168V17.3533C21.2168 16.0083 20.7468 15.095 19.5751 15.095C18.6801 15.095 18.1484 15.7133 17.9134 16.3083C17.8268 16.52 17.8051 16.82 17.8051 17.1183V23.13H14.5634V16.03C14.5634 14.7283 14.5218 13.64 14.4784 12.7033H17.2934L17.4418 14.1517H17.5068C17.9334 13.4717 18.9784 12.4683 20.7268 12.4683C22.8584 12.4683 24.4568 13.8967 24.4568 16.9667V23.1317Z" fill="#B1B1B1"/>
</svg>
