<svg width="270" height="64" viewBox="0 0 270 64" fill="none" xmlns="http://www.w3.org/2000/svg">
<path d="M98.4984 12.7184C97.4914 12.7184 96.6464 13.0525 95.9861 13.7129C95.3311 14.3712 94.9989 15.2053 94.9989 16.1918C94.9989 17.1817 95.3324 18.0091 95.9907 18.6515C96.6484 19.2918 97.4914 19.6167 98.4984 19.6167C99.5425 19.6167 100.403 19.2918 101.055 18.6508C101.713 18.0051 102.047 17.1783 102.047 16.1918C102.047 15.2093 101.715 14.3752 101.059 13.7135C100.405 13.0532 99.5425 12.7184 98.4984 12.7184Z" fill="#11100E"/>
<path d="M189.563 31.8099V44.7206C188.681 46.3002 187.691 47.5004 186.62 48.2899C185.549 49.08 184.192 49.4801 182.588 49.4801C180.418 49.4801 178.761 48.5675 177.521 46.689C176.285 44.8198 175.658 42.1338 175.658 38.7069C175.658 35.3473 176.347 32.6959 177.705 30.8261C179.051 28.9695 180.85 28.0283 183.053 28.0283C185.674 28.0283 187.863 29.3004 189.563 31.8099ZM189.563 28.9922C187.801 26.9166 185.52 25.8655 182.774 25.8655C180.784 25.8655 179.039 26.4214 177.587 27.5177C176.138 28.6107 175.013 30.1511 174.243 32.0968C173.477 34.0353 173.088 36.3065 173.088 38.848C173.088 42.7795 173.923 45.9321 175.568 48.2186C177.229 50.5219 179.496 51.6895 182.307 51.6895C184.101 51.6895 185.647 51.2787 186.901 50.4686C188.001 49.753 188.921 48.8231 189.64 47.6988L189.85 51.1762H192.038V16.3538L189.563 16.0303V28.9922Z" fill="#7A7A7B"/>
<path d="M195.895 51.1738H198.373V26.3311H195.895V51.1738Z" fill="#7A7A7B"/>
<path d="M197.132 15.9138C196.587 15.9138 196.139 16.0888 195.802 16.433C195.461 16.7752 195.288 17.2098 195.288 17.7237C195.288 18.239 195.461 18.6736 195.802 19.0145C196.142 19.3586 196.589 19.5337 197.132 19.5337C197.67 19.5337 198.117 19.3593 198.461 19.0151C198.803 18.671 198.977 18.237 198.977 17.7237C198.977 17.2118 198.803 16.7771 198.461 16.433C198.12 16.0888 197.673 15.9138 197.132 15.9138Z" fill="#7A7A7B"/>
<path d="M214.56 29.6197C215.616 30.742 216.152 32.3156 216.152 34.2973C216.152 36.2744 215.602 37.8134 214.519 38.8705C213.439 39.9302 211.861 40.4667 209.828 40.4667C207.89 40.4667 206.327 39.9142 205.185 38.8232C204.042 37.7362 203.462 36.1805 203.462 34.2015C203.462 32.2837 204.004 30.7427 205.072 29.6203C206.139 28.502 207.756 27.9342 209.876 27.9342C211.932 27.9342 213.508 28.5014 214.56 29.6197ZM220.269 24.4687C218.981 24.9946 217.665 25.37 216.359 25.5857C215.064 25.8014 212.874 25.8919 209.828 25.8666C207.156 25.8666 204.982 26.6395 203.367 28.1645C201.755 29.6949 200.937 31.7252 200.937 34.2015C200.937 35.8803 201.274 37.3141 201.938 38.4644C202.568 39.5455 203.542 40.4534 204.838 41.1637C203.177 42.2913 202.336 43.6593 202.336 45.2329C202.336 46.503 202.876 47.5661 203.942 48.3948C204.994 49.2103 206.504 49.6237 208.429 49.6237H212.395C214.153 49.6237 215.542 49.9931 216.523 50.7213C217.485 51.4383 217.972 52.4508 217.972 53.7322C217.972 56.8941 215.312 58.497 210.064 58.497C208.066 58.497 206.489 58.3326 205.373 58.0091C204.28 57.6929 203.485 57.185 203.012 56.4993C202.535 55.8137 202.278 54.8498 202.247 53.633L202.242 53.4712H199.865V53.6376C199.865 56.1279 200.681 57.9505 202.292 59.0568C203.885 60.1519 206.5 60.707 210.064 60.707C213.502 60.707 216.123 60.0893 217.855 58.8698C219.608 57.6343 220.497 55.8583 220.497 53.5904C220.497 51.7318 219.783 50.2115 218.379 49.0705C216.986 47.9409 215.083 47.3677 212.723 47.3677H208.709C206.058 47.3677 204.769 46.5316 204.769 44.8116C204.769 44.2484 204.94 43.7112 205.276 43.2146C205.603 42.7273 206.073 42.3146 206.671 41.9878C207.626 42.3206 208.704 42.4897 209.876 42.4897C212.549 42.4897 214.707 41.7395 216.289 40.2604C217.873 38.7793 218.676 36.7883 218.676 34.3419C218.676 31.2725 217.459 29.0226 215.057 27.644C217.744 27.5881 219.768 27.3518 221.078 26.9424L221.238 26.8931L220.433 24.4008L220.269 24.4687Z" fill="#7A7A7B"/>
<path d="M223.009 51.1738H225.489V26.3311H223.009V51.1738Z" fill="#7A7A7B"/>
<path d="M224.246 15.9138C223.703 15.9138 223.257 16.0888 222.919 16.433C222.576 16.7771 222.402 17.2118 222.402 17.7237C222.402 18.237 222.576 18.671 222.919 19.0151C223.259 19.3586 223.707 19.5337 224.246 19.5337C224.786 19.5337 225.234 19.3593 225.578 19.0158C225.921 18.6736 226.093 18.239 226.093 17.7237C226.093 17.2098 225.92 16.7752 225.578 16.433C225.237 16.0882 224.788 15.9138 224.246 15.9138Z" fill="#7A7A7B"/>
<path d="M241.397 48.3247C240.121 49.0583 238.829 49.4304 237.556 49.4304C235.124 49.4304 233.942 48.0105 233.942 45.0889V28.4965H240.079L240.407 26.3311H233.942V20.1157L231.466 20.384V26.3311H227.405V28.4965H231.466V45.2294C231.466 47.3349 231.991 48.9538 233.027 50.0408C234.064 51.1332 235.51 51.687 237.325 51.687C239.153 51.687 240.878 51.1731 242.453 50.1593L242.586 50.0734L241.54 48.2422L241.397 48.3247Z" fill="#7A7A7B"/>
<path d="M250.104 49.5298C248.446 49.5298 247.135 49.0572 246.21 48.1226C245.281 47.19 244.811 45.8554 244.811 44.1553C244.811 42.1869 245.478 40.6925 246.797 39.7126C248.131 38.7221 250.077 38.2195 252.579 38.2195H257.08V45.0073C255.501 48.0081 253.154 49.5298 250.104 49.5298ZM260.028 48.5813C259.716 48.0148 259.559 47.0469 259.559 45.7043V33.6377C259.559 31.1055 258.906 29.1544 257.62 27.8404C256.334 26.5317 254.308 25.868 251.599 25.868C249.35 25.868 246.833 26.4086 244.119 27.4749L243.969 27.5335L244.687 29.5845L244.846 29.5212C247.276 28.5627 249.485 28.0774 251.412 28.0774C253.442 28.0774 254.908 28.534 255.772 29.436C256.64 30.3367 257.08 31.7985 257.08 33.7795V36.1952H252.252C249.18 36.1952 246.713 36.8935 244.92 38.2694C243.112 39.6567 242.195 41.6537 242.195 44.2045C242.195 46.4611 242.885 48.2937 244.248 49.6503C245.611 51.005 247.488 51.6919 249.826 51.6919C253.079 51.6919 255.631 50.344 257.417 47.6833C257.576 48.771 257.906 49.6244 258.401 50.2255C258.966 50.9058 259.803 51.3971 260.889 51.6866L261.04 51.7266L261.652 49.8793L261.505 49.8221C260.829 49.5565 260.332 49.1391 260.028 48.5813Z" fill="#7A7A7B"/>
<path d="M269.279 49.0569L269.125 49.1142C268.555 49.3239 267.993 49.4304 267.456 49.4304C266.156 49.4304 265.523 48.6549 265.523 47.0599V16.0279L263.043 16.3514V47.1545C263.043 48.6336 263.421 49.7712 264.164 50.5354C264.909 51.2996 265.938 51.687 267.224 51.687C268.081 51.687 268.969 51.4773 269.861 51.0626L270 50.998L269.279 49.0569Z" fill="#7A7A7B"/>
<path d="M70.0271 47.7655C65.8547 47.7655 63.826 44.6861 63.826 38.3509C63.826 31.9851 65.8699 28.8898 70.0734 28.8898C74.2134 28.8898 76.2261 31.9698 76.2261 38.305C76.2261 44.6708 74.1982 47.7655 70.0271 47.7655ZM70.0734 24.4824C67.6133 24.4824 65.4676 25.0702 63.6957 26.2305C61.9218 27.3947 60.5508 29.0456 59.6218 31.1364C58.6975 33.2126 58.2284 35.6397 58.2284 38.3509C58.2284 42.5599 59.2712 45.9475 61.3289 48.4212C63.4065 50.9114 66.333 52.1729 70.0271 52.1729C72.4554 52.1729 74.5846 51.5844 76.3545 50.4235C78.1251 49.2639 79.4954 47.6144 80.429 45.5208C81.3533 43.4406 81.8218 41.0129 81.8218 38.305C81.8218 34.096 80.7876 30.7077 78.7484 28.2354C76.6913 25.7452 73.7727 24.4824 70.0734 24.4824Z" fill="#11100E"/>
<path d="M92.0603 47.3994C91.6243 47.5764 91.1188 47.6663 90.559 47.6663C90.1038 47.6663 89.8028 47.5578 89.638 47.3374C89.5077 47.1617 89.3515 46.7889 89.3515 46.0161V14.1333L84.0993 14.7663V46.1113C84.0993 48.0005 84.618 49.4989 85.6409 50.5633C86.6659 51.6317 88.0765 52.1729 89.8332 52.1729C91.183 52.1729 92.4382 51.8606 93.563 51.2456L93.866 51.0792L92.4375 47.2469L92.0603 47.3994Z" fill="#11100E"/>
<path d="M95.9179 51.5869H101.175V25.064H95.9179V51.5869Z" fill="#11100E"/>
<path d="M121.703 25.0665L115.348 45.8333L108.947 25.0665H103.245L112.349 51.5894H118.3L127.256 25.0665H121.703Z" fill="#11100E"/>
<path d="M135.869 48.0051C134.533 48.0051 133.519 47.653 132.856 46.958C132.189 46.2571 131.85 45.184 131.85 43.7688C131.85 40.4897 134.038 38.8961 138.537 38.8961H141.488V44.2987C140.101 46.7923 138.261 48.0051 135.869 48.0051ZM147.205 47.2722C146.9 46.8409 146.746 46.1386 146.746 45.182V33.421C146.746 30.5899 145.954 28.3686 144.396 26.8196C142.841 25.2686 140.478 24.4818 137.373 24.4818C134.616 24.4818 131.599 25.0815 128.408 26.2644L128.043 26.3996L129.411 30.4129L129.785 30.2877C134.944 28.559 138.662 28.5397 140.311 30.0115C141.092 30.7084 141.488 31.9219 141.488 33.618V35.1211H137.956C134.296 35.1211 131.417 35.886 129.398 37.3964C127.345 38.9334 126.305 41.1607 126.305 44.0145C126.305 46.4262 127.079 48.4112 128.608 49.9116C130.131 51.4113 132.231 52.1722 134.85 52.1722C138.058 52.1722 140.578 51.0239 142.352 48.7553C142.761 49.7179 143.323 50.4628 144.029 50.9747C144.894 51.5991 146.033 52.0005 147.415 52.1695L147.738 52.2095L148.98 48.4085L148.619 48.276C147.99 48.0451 147.515 47.7062 147.205 47.2722Z" fill="#11100E"/>
<path d="M168.409 38.586C166.963 37.3159 164.762 36.3014 161.873 35.5731C159.861 35.036 158.46 34.4834 157.711 33.9329C157.021 33.419 156.685 32.7254 156.685 31.8115C156.685 30.8968 157.043 30.1965 157.781 29.6713C158.547 29.1195 159.627 28.8399 160.993 28.8399C162.108 28.8399 163.184 29.0143 164.19 29.3578C165.207 29.7053 166.296 30.2498 167.427 30.9754L167.753 31.1857L170.07 27.7196L169.773 27.4913C168.481 26.4928 167.106 25.7339 165.685 25.2347C164.257 24.7341 162.629 24.4805 160.848 24.4805C159.057 24.4805 157.413 24.7946 155.963 25.4151C154.5 26.0394 153.335 26.9381 152.498 28.085C151.659 29.2386 151.234 30.5407 151.234 31.9552C151.234 33.913 151.884 35.5525 153.169 36.8286C154.428 38.0747 156.472 39.0785 159.241 39.8094C160.903 40.2614 162.172 40.6888 163.009 41.0769C163.815 41.457 164.381 41.8863 164.689 42.3516C165 42.8243 165.158 43.4646 165.158 44.2548C165.158 45.3318 164.728 46.1586 163.843 46.7836C162.931 47.434 161.662 47.7635 160.072 47.7635C157.557 47.7635 155.222 46.9527 153.133 45.3538L152.838 45.1281L149.954 48.4412L150.253 48.7041C152.871 51.0046 156.206 52.1709 160.168 52.1709C163.052 52.1709 165.535 51.4746 167.548 50.1013C169.611 48.6941 170.656 46.6292 170.656 43.9632C170.656 41.7059 169.901 39.8973 168.409 38.586Z" fill="#11100E"/>
<path d="M10.6963 22.7635C14.4949 10.6849 20.4598 5.91212 28.5836 8.44765L30.6771 1.79162C26.2929 0.411026 22.2132 0.247952 18.4245 1.3057C14.6153 2.37276 11.2793 4.51154 8.43281 7.73138C5.58173 10.9492 3.3837 15.0198 1.83476 19.9424C-0.563085 27.5656 -0.610064 34.187 1.69052 39.8092C3.9964 45.4255 8.45796 49.2877 15.0778 51.3945L17.1726 44.7379C9.05808 42.1544 6.90239 34.828 10.6963 22.7635Z" fill="#BDBA1A"/>
<path d="M39.4519 41.5617C35.6354 53.635 29.6653 58.3998 21.5441 55.853L19.4414 62.5043C23.8215 63.8916 27.902 64.0613 31.6933 63.0089C35.5038 61.9472 38.8432 59.8124 41.6936 56.5972C44.55 53.3833 46.7546 49.3154 48.3088 44.3942C50.7179 36.7743 50.7729 30.1529 48.4796 24.5273C46.1843 18.9097 41.7273 15.0415 35.1101 12.9241L33.0073 19.5787C41.1173 22.1742 43.2624 29.5025 39.4519 41.5617Z" fill="#BDBA1A"/>
<path d="M30.6783 1.79457L35.1101 12.9279L19.4367 62.5234L15.079 51.3975L30.6783 1.79457Z" fill="#6B6921"/>
</svg>
