<svg width="60" height="60" viewBox="0 0 60 60" fill="none" xmlns="http://www.w3.org/2000/svg">
<g clip-path="url(#clip0_3021_62)">
<path d="M20.625 37.5H11.25C10.7527 37.5 10.2758 37.3025 9.92418 36.9508C9.57254 36.5992 9.375 36.1223 9.375 35.625C9.375 35.1277 9.57254 34.6508 9.92418 34.2992C10.2758 33.9475 10.7527 33.75 11.25 33.75H20.625C21.1223 33.75 21.5992 33.9475 21.9508 34.2992C22.3025 34.6508 22.5 35.1277 22.5 35.625C22.5 36.1223 22.3025 36.5992 21.9508 36.9508C21.5992 37.3025 21.1223 37.5 20.625 37.5Z" fill="#6A0F65"/>
<path d="M48.75 37.5H39.375C38.8777 37.5 38.4008 37.3025 38.0492 36.9508C37.6975 36.5992 37.5 36.1223 37.5 35.625C37.5 35.1277 37.6975 34.6508 38.0492 34.2992C38.4008 33.9475 38.8777 33.75 39.375 33.75H48.75C49.2473 33.75 49.7242 33.9475 50.0758 34.2992C50.4275 34.6508 50.625 35.1277 50.625 35.625C50.625 36.1223 50.4275 36.5992 50.0758 36.9508C49.7242 37.3025 49.2473 37.5 48.75 37.5Z" fill="#6A0F65"/>
<path d="M21 57.9375C20.5665 57.7129 20.2377 57.328 20.0835 56.8648C19.9294 56.4015 19.962 55.8964 20.1745 55.4568C20.3869 55.0172 20.7625 54.6778 21.2213 54.5108C21.6801 54.3438 22.1859 54.3624 22.6313 54.5625C25.2043 55.8115 28.0527 56.3859 30.9087 56.2319C33.7648 56.0779 36.5348 55.2004 38.9586 53.682C41.3825 52.1636 43.3806 50.054 44.7654 47.5514C46.1502 45.0487 46.8761 42.2352 46.875 39.375V30H41.25V39.375C41.25 42.3587 40.0647 45.2202 37.955 47.33C35.8452 49.4397 32.9837 50.625 30 50.625C27.0163 50.625 24.1548 49.4397 22.0451 47.33C19.9353 45.2202 18.75 42.3587 18.75 39.375V30H13.125V39.375C13.1113 43.0285 14.297 46.5854 16.5 49.5C16.7984 49.8978 16.9265 50.3979 16.8562 50.8902C16.7858 51.3825 16.5228 51.8266 16.125 52.125C15.7272 52.4234 15.2271 52.5515 14.7348 52.4812C14.2426 52.4108 13.7984 52.1478 13.5 51.75C10.8114 48.1857 9.36272 43.8396 9.375 39.375V30C9.375 29.0054 9.77009 28.0516 10.4734 27.3484C11.1766 26.6451 12.1304 26.25 13.125 26.25H18.75C19.7446 26.25 20.6984 26.6451 21.4017 27.3484C22.1049 28.0516 22.5 29.0054 22.5 30V39.375C22.5 41.3641 23.2902 43.2718 24.6967 44.6783C26.1032 46.0848 28.0109 46.875 30 46.875C31.9891 46.875 33.8968 46.0848 35.3033 44.6783C36.7098 43.2718 37.5 41.3641 37.5 39.375V30C37.5 29.0054 37.8951 28.0516 38.5984 27.3484C39.3016 26.6451 40.2554 26.25 41.25 26.25H46.875C47.8696 26.25 48.8234 26.6451 49.5267 27.3484C50.2299 28.0516 50.625 29.0054 50.625 30V39.375C50.6258 42.8699 49.7385 46.3078 48.0463 49.3658C46.3542 52.4237 43.9127 55.0016 40.9511 56.8573C37.9895 58.7129 34.6049 59.7856 31.1151 59.9746C27.6253 60.1635 24.1446 59.4626 21 57.9375Z" fill="#9F9316"/>
<path d="M35.2313 12.8624C36.3004 11.8218 37.0348 10.4859 37.3407 9.02559C37.6466 7.5653 37.5099 6.04696 36.9483 4.66473C36.3867 3.2825 35.4255 2.09919 34.1878 1.26611C32.9501 0.433028 31.492 -0.0119629 30 -0.0119629C28.508 -0.0119629 27.0499 0.433028 25.8122 1.26611C24.5745 2.09919 23.6133 3.2825 23.0517 4.66473C22.4901 6.04696 22.3534 7.5653 22.6593 9.02559C22.9652 10.4859 23.6996 11.8218 24.7688 12.8624C23.4956 13.7185 22.4521 14.8739 21.7296 16.2273C21.0071 17.5807 20.6278 19.0908 20.625 20.6249C20.625 21.1222 20.8225 21.5991 21.1742 21.9507C21.5258 22.3024 22.0027 22.4999 22.5 22.4999H37.5C37.9973 22.4999 38.4742 22.3024 38.8258 21.9507C39.1775 21.5991 39.375 21.1222 39.375 20.6249C39.3722 19.0908 38.9929 17.5807 38.2704 16.2273C37.5479 14.8739 36.5044 13.7185 35.2313 12.8624ZM26.25 7.49992C26.25 6.75824 26.4699 6.03322 26.882 5.41653C27.294 4.79985 27.8797 4.3192 28.5649 4.03538C29.2502 3.75155 30.0042 3.67728 30.7316 3.82198C31.459 3.96667 32.1272 4.32383 32.6516 4.84827C33.1761 5.37272 33.5333 6.04091 33.6779 6.76833C33.8226 7.49576 33.7484 8.24976 33.4645 8.93499C33.1807 9.62021 32.7001 10.2059 32.0834 10.6179C31.4667 11.03 30.7417 11.2499 30 11.2499C29.0054 11.2499 28.0516 10.8548 27.3484 10.1516C26.6451 9.44831 26.25 8.49448 26.25 7.49992ZM24.6938 18.7499C25.0803 17.6512 25.7983 16.6995 26.7488 16.0263C27.6993 15.3531 28.8353 14.9916 30 14.9916C31.1647 14.9916 32.3007 15.3531 33.2512 16.0263C34.2017 16.6995 34.9197 17.6512 35.3062 18.7499H24.6938Z" fill="#6A0F65"/>
<path d="M15 18.75C14.6804 18.749 14.3663 18.6664 14.0876 18.5099C13.8089 18.3534 13.5749 18.1282 13.4077 17.8558C13.2405 17.5834 13.1457 17.2728 13.1323 16.9535C13.1189 16.6341 13.1874 16.3167 13.3313 16.0312L14.5875 13.5L12.7125 11.625C12.1568 11.0673 11.7908 10.3488 11.6663 9.57138C11.5418 8.79399 11.6651 7.99713 12.0188 7.29374L13.2938 4.74374C13.5378 4.33809 13.9264 4.03979 14.3813 3.90873C14.8362 3.77767 15.3239 3.82356 15.7464 4.03718C16.1689 4.2508 16.4949 4.61634 16.659 5.0604C16.8232 5.50447 16.8133 5.99419 16.6313 6.43124L15.4125 8.99999L17.2875 10.875C17.8432 11.4327 18.2092 12.1512 18.3337 12.9286C18.4582 13.706 18.3349 14.5028 17.9813 15.2062L16.6688 17.7187C16.5129 18.028 16.2746 18.288 15.98 18.47C15.6855 18.652 15.3463 18.7489 15 18.75Z" fill="#9F9316"/>
<path d="M45 18.75C44.6804 18.749 44.3663 18.6664 44.0876 18.5099C43.8089 18.3534 43.5749 18.1282 43.4077 17.8558C43.2405 17.5834 43.1457 17.2728 43.1323 16.9535C43.1189 16.6341 43.1874 16.3167 43.3312 16.0312L44.5875 13.5L42.7125 11.625C42.1568 11.0673 41.7908 10.3488 41.6663 9.57138C41.5418 8.79399 41.6651 7.99713 42.0187 7.29374L43.2937 4.74374C43.5378 4.33809 43.9263 4.03979 44.3813 3.90873C44.8362 3.77767 45.3239 3.82356 45.7464 4.03718C46.1689 4.2508 46.4949 4.61634 46.659 5.0604C46.8232 5.50447 46.8132 5.99419 46.6312 6.43124L45.4125 8.99999L47.2875 10.875C47.8432 11.4327 48.2092 12.1512 48.3337 12.9286C48.4582 13.706 48.3349 14.5028 47.9812 15.2062L46.7062 17.7562C46.5424 18.0642 46.2959 18.3204 45.9945 18.4959C45.6931 18.6715 45.3487 18.7595 45 18.75Z" fill="#9F9316"/>
</g>
<defs>
<clipPath id="clip0_3021_62">
<rect width="60" height="60" fill="white"/>
</clipPath>
</defs>
</svg>
