<svg width="65" height="64" viewBox="0 0 65 64" fill="none" xmlns="http://www.w3.org/2000/svg">
<g clip-path="url(#clip0_62_2668)">
<path d="M60.7937 52.0062L50.1437 41.375C49.4411 40.6765 48.4907 40.2845 47.5 40.2845C46.5093 40.2845 45.5588 40.6765 44.8562 41.375L44.6875 41.5437L42.1562 39.0125C45.2339 35.3709 47.0751 30.8458 47.4144 26.09C47.7536 21.3342 46.5733 16.5935 44.0438 12.552C41.5143 8.51042 37.7663 5.37687 33.3405 3.60341C28.9147 1.82995 24.0399 1.50826 19.4195 2.68476C14.799 3.86125 10.6717 6.47509 7.633 10.1492C4.5943 13.8233 2.8013 18.3678 2.51266 23.1269C2.22401 27.8861 3.45466 32.6139 6.02705 36.6283C8.59943 40.6427 12.3806 43.7362 16.825 45.4625C17.058 45.5732 17.3113 45.6346 17.5691 45.643C17.8269 45.6513 18.0837 45.6063 18.3233 45.5109C18.563 45.4155 18.7803 45.2716 18.9618 45.0884C19.1434 44.9051 19.2851 44.6863 19.3782 44.4458C19.4713 44.2052 19.5138 43.9481 19.503 43.6903C19.4922 43.4326 19.4283 43.1799 19.3154 42.948C19.2025 42.7161 19.0429 42.51 18.8467 42.3426C18.6504 42.1751 18.4218 42.05 18.175 41.975C13.8216 40.2819 10.2569 37.0249 8.17887 32.8416C6.10081 28.6583 5.65901 23.85 6.93997 19.3581C8.22093 14.8661 11.1324 11.0141 15.1044 8.55606C19.0763 6.09805 23.8227 5.2111 28.4143 6.06886C33.0059 6.92663 37.112 9.46734 39.9286 13.1936C42.7453 16.9198 44.0697 21.5632 43.6426 26.2146C43.2154 30.866 41.0675 35.1906 37.6193 38.3415C34.1711 41.4924 29.671 43.2428 25 43.25C24.5027 43.25 24.0258 43.4475 23.6742 43.7992C23.3225 44.1508 23.125 44.6277 23.125 45.125C23.125 45.6223 23.3225 46.0992 23.6742 46.4508C24.0258 46.8024 24.5027 47 25 47C30.3201 47.0074 35.4676 45.112 39.5125 41.6562L42.0437 44.1875L41.875 44.3562C41.1765 45.0588 40.7845 46.0093 40.7845 47C40.7845 47.9907 41.1765 48.9411 41.875 49.6437L52.5062 60.2937C53.6239 61.2964 55.0833 61.8326 56.5843 61.792C58.0852 61.7513 59.5135 61.1369 60.5752 60.0752C61.6369 59.0135 62.2513 57.5852 62.292 56.0843C62.3326 54.5833 61.7964 53.1239 60.7937 52.0062ZM56.65 58.25C56.3743 58.2511 56.1011 58.1969 55.8467 58.0906C55.5923 57.9844 55.3617 57.8281 55.1687 57.6312L44.5187 47L47.5 44.0187L58.1312 54.6687C58.4235 54.9624 58.6223 55.3359 58.7027 55.7423C58.7831 56.1487 58.7416 56.5698 58.5832 56.9526C58.4249 57.3355 58.1568 57.6629 57.8129 57.8937C57.4689 58.1246 57.0643 58.2485 56.65 58.25Z" fill="#9F9316"/>
<path d="M17.5976 20.06C18.3256 20.06 18.9556 20.1627 19.4876 20.368C20.0289 20.5733 20.5189 20.886 20.9576 21.306L19.8936 22.552C19.2309 22.0107 18.5216 21.74 17.7656 21.74C17.3643 21.74 17.0469 21.824 16.8136 21.992C16.5803 22.1507 16.4636 22.384 16.4636 22.692C16.4636 22.9067 16.5149 23.084 16.6176 23.224C16.7203 23.3547 16.9023 23.4807 17.1636 23.602C17.4249 23.7233 17.8169 23.868 18.3396 24.036C19.3289 24.3533 20.0569 24.7453 20.5236 25.212C20.9903 25.6693 21.2236 26.3227 21.2236 27.172C21.2236 27.7787 21.0696 28.3153 20.7616 28.782C20.4536 29.2393 20.0103 29.5987 19.4316 29.86C18.8529 30.112 18.1669 30.238 17.3736 30.238C16.5803 30.238 15.8756 30.112 15.2596 29.86C14.6529 29.608 14.1303 29.272 13.6916 28.852L14.8536 27.578C15.2269 27.8953 15.6096 28.1333 16.0016 28.292C16.4029 28.4507 16.8369 28.53 17.3036 28.53C17.7796 28.53 18.1529 28.4273 18.4236 28.222C18.7036 28.0073 18.8436 27.7133 18.8436 27.34C18.8436 27.0973 18.7923 26.8967 18.6896 26.738C18.5869 26.57 18.4096 26.4207 18.1576 26.29C17.9056 26.1593 17.5416 26.0193 17.0656 25.87C15.9923 25.5433 15.2269 25.142 14.7696 24.666C14.3216 24.19 14.0976 23.588 14.0976 22.86C14.0976 22.3 14.2469 21.81 14.5456 21.39C14.8443 20.9607 15.2596 20.634 15.7916 20.41C16.3236 20.1767 16.9256 20.06 17.5976 20.06ZM28.4373 20.298L28.1993 21.936H24.7833V24.26H27.7653V25.87H24.7833V28.348H28.4373V30H22.4873V20.298H28.4373ZM33.5851 20.06C34.9664 20.06 36.0397 20.5033 36.8051 21.39C37.5797 22.2767 37.9671 23.5273 37.9671 25.142C37.9671 26.1967 37.7897 27.1067 37.4351 27.872C37.0897 28.6373 36.5857 29.2253 35.9231 29.636C35.2697 30.0373 34.4904 30.238 33.5851 30.238C32.6797 30.238 31.9004 30.0373 31.2471 29.636C30.5937 29.2347 30.0897 28.656 29.7351 27.9C29.3897 27.1347 29.2171 26.2153 29.2171 25.142C29.2171 24.0967 29.3897 23.1913 29.7351 22.426C30.0897 21.6607 30.5937 21.0773 31.2471 20.676C31.9004 20.2653 32.6797 20.06 33.5851 20.06ZM33.5851 21.74C32.9224 21.74 32.4277 22.0107 32.1011 22.552C31.7837 23.084 31.6251 23.9473 31.6251 25.142C31.6251 26.3367 31.7884 27.2047 32.1151 27.746C32.4417 28.2873 32.9317 28.558 33.5851 28.558C34.2571 28.558 34.7517 28.292 35.0691 27.76C35.3957 27.2187 35.5591 26.346 35.5591 25.142C35.5591 23.938 35.3957 23.07 35.0691 22.538C34.7424 22.006 34.2477 21.74 33.5851 21.74Z" fill="#6A0F65"/>
</g>
<defs>
<clipPath id="clip0_62_2668">
<rect width="60" height="60" fill="white" transform="translate(2.5 2)"/>
</clipPath>
</defs>
</svg>
