<svg width="22" height="22" viewBox="0 0 22 22" fill="none" xmlns="http://www.w3.org/2000/svg">
<path d="M11.0001 21.2455C16.5951 21.2455 21.2455 16.6049 21.2455 11.0001C21.2455 5.40507 16.6049 0.754639 11.0099 0.754639C10.4776 0.754639 10.2166 1.07607 10.2166 1.59807V5.4955C10.2166 5.9275 10.5081 6.27892 10.9495 6.27892C11.3918 6.27892 11.6931 5.9275 11.6931 5.4955V2.49207C16.1129 2.8435 19.5278 6.50007 19.5278 11.0001C19.5324 12.1217 19.3151 13.2332 18.8883 14.2705C18.4615 15.3078 17.8337 16.2504 17.041 17.0441C16.2484 17.8377 15.3065 18.4666 14.2697 18.8946C13.233 19.3227 12.1217 19.5414 11.0001 19.5381C6.25878 19.5381 2.45221 15.7409 2.46207 11.0001C2.47192 8.89064 3.22535 6.97235 4.48107 5.4955C4.79221 5.10378 4.81235 4.63192 4.48107 4.28007C4.14935 3.91878 3.58707 3.94878 3.22535 4.40092C1.6885 6.1885 0.754639 8.49892 0.754639 11.0001C0.754639 16.6049 5.39521 21.2455 11.0001 21.2455ZM12.6072 12.5468C13.4005 11.7231 13.2402 10.5981 12.2858 9.9355L6.9715 6.22878C6.46964 5.87735 5.94721 6.39978 6.29864 6.90164L10.0054 12.2155C10.6684 13.1699 11.7934 13.3405 12.6072 12.5468Z" fill="#6A0F65"/>
</svg>
