<svg width="21" height="19" viewBox="0 0 21 19" fill="none" xmlns="http://www.w3.org/2000/svg">
<path d="M8 0C10.2 0 12 1.8 12 4C12 6.2 10.2 8 8 8C5.8 8 4 6.2 4 4C4 1.8 5.8 0 8 0ZM15 17L16.8 18.77C17.3 19.27 18 18.87 18 18.28V14L20.8 10.6C20.9114 10.4514 20.9793 10.2748 20.996 10.0898C21.0126 9.90484 20.9775 9.71889 20.8944 9.55279C20.8114 9.38668 20.6837 9.24698 20.5257 9.14935C20.3678 9.05171 20.1857 9 20 9H13C12.2 9 11.7 10 12.2 10.6L15 14V17ZM13 14.7L10.7 11.9C10.3 11.4 10.1 10.8 10.1 10.2C9.4 10 8.7 10 8 10C3.6 10 0 11.8 0 14V16H13V14.7Z" fill="#6A0F65"/>
</svg>
