<svg width="65" height="64" viewBox="0 0 65 64" fill="none" xmlns="http://www.w3.org/2000/svg">
<g clip-path="url(#clip0_62_2648)">
<path d="M61.125 48.875H59.25V18.875C59.2802 17.4193 58.7333 16.0107 57.7286 14.9568C56.7239 13.9029 55.343 13.2893 53.8875 13.25H40.5C40.0027 13.25 39.5258 13.4475 39.1742 13.7992C38.8225 14.1508 38.625 14.6277 38.625 15.125C38.625 15.6223 38.8225 16.0992 39.1742 16.4508C39.5258 16.8025 40.0027 17 40.5 17H53.8875C54.3486 17.0383 54.7761 17.2564 55.0778 17.6072C55.3795 17.958 55.5311 18.4134 55.5 18.875V48.875H10.5V18.875C10.4689 18.4134 10.6205 17.958 10.9222 17.6072C11.2239 17.2564 11.6514 17.0383 12.1125 17H18C18.4973 17 18.9742 16.8025 19.3258 16.4508C19.6775 16.0992 19.875 15.6223 19.875 15.125C19.875 14.6277 19.6775 14.1508 19.3258 13.7992C18.9742 13.4475 18.4973 13.25 18 13.25H12.1125C10.657 13.2893 9.27611 13.9029 8.2714 14.9568C7.26669 16.0107 6.71975 17.4193 6.75 18.875V48.875H4.875C4.37772 48.875 3.90081 49.0725 3.54917 49.4242C3.19754 49.7758 3 50.2527 3 50.75L3 54.5C3 56.4891 3.79018 58.3968 5.1967 59.8033C6.60322 61.2098 8.51088 62 10.5 62H55.5C57.4891 62 59.3968 61.2098 60.8033 59.8033C62.2098 58.3968 63 56.4891 63 54.5V50.75C63 50.2527 62.8025 49.7758 62.4508 49.4242C62.0992 49.0725 61.6223 48.875 61.125 48.875ZM59.25 54.5C59.25 55.4946 58.8549 56.4484 58.1516 57.1516C57.4484 57.8549 56.4946 58.25 55.5 58.25H10.5C9.50544 58.25 8.55161 57.8549 7.84835 57.1516C7.14509 56.4484 6.75 55.4946 6.75 54.5V52.625H59.25V54.5Z" fill="#9F9316"/>
<path d="M48 39.5001H45.7125L44.7563 35.7501C45.2535 35.6829 45.7038 35.421 46.0079 35.0219C46.3121 34.6228 46.4453 34.1192 46.3781 33.6219C46.311 33.1246 46.0491 32.6744 45.65 32.3702C45.2509 32.0661 44.7473 31.9329 44.25 32.0001H43.575C41.316 27.251 39.7622 22.1978 38.9625 17.0001H40.5C40.9973 17.0001 41.4742 16.8025 41.8258 16.4509C42.1775 16.0993 42.375 15.6223 42.375 15.1251C42.375 14.6278 42.1775 14.1509 41.8258 13.7992C41.4742 13.4476 40.9973 13.2501 40.5 13.2501H39.45C40.1257 12.1113 40.4879 10.814 40.4997 9.48995C40.5115 8.16589 40.1726 6.8623 39.5174 5.71166C38.8622 4.56101 37.9141 3.60434 36.7694 2.93887C35.6246 2.2734 34.3241 1.92285 33 1.92285C31.6759 1.92285 30.3754 2.2734 29.2306 2.93887C28.0859 3.60434 27.1378 4.56101 26.4826 5.71166C25.8274 6.8623 25.4885 8.16589 25.5003 9.48995C25.5121 10.814 25.8743 12.1113 26.55 13.2501H25.5C25.0027 13.2501 24.5258 13.4476 24.1742 13.7992C23.8225 14.1509 23.625 14.6278 23.625 15.1251C23.625 15.6223 23.8225 16.0993 24.1742 16.4509C24.5258 16.8025 25.0027 17.0001 25.5 17.0001H27.0375C26.2397 22.1982 24.6857 27.2517 22.425 32.0001H21.75C21.2527 31.9329 20.7491 32.0661 20.35 32.3702C19.9509 32.6744 19.689 33.1246 19.6219 33.6219C19.5547 34.1192 19.6879 34.6228 19.9921 35.0219C20.2962 35.421 20.7465 35.6829 21.2437 35.7501L20.2875 39.5001H18C17.5027 39.5001 17.0258 39.6976 16.6742 40.0492C16.3225 40.4009 16.125 40.8778 16.125 41.3751C16.125 41.8723 16.3225 42.3493 16.6742 42.7009C17.0258 43.0525 17.5027 43.2501 18 43.2501H48C48.4973 43.2501 48.9742 43.0525 49.3258 42.7009C49.6775 42.3493 49.875 41.8723 49.875 41.3751C49.875 40.8778 49.6775 40.4009 49.3258 40.0492C48.9742 39.6976 48.4973 39.5001 48 39.5001ZM33 5.75006C33.7417 5.75006 34.4667 5.96999 35.0834 6.38205C35.7001 6.7941 36.1807 7.37977 36.4645 8.06499C36.7484 8.75022 36.8226 9.50422 36.6779 10.2316C36.5333 10.9591 36.1761 11.6273 35.6516 12.1517C35.1272 12.6762 34.459 13.0333 33.7316 13.178C33.0042 13.3227 32.2502 13.2484 31.5649 12.9646C30.8797 12.6808 30.294 12.2001 29.882 11.5834C29.4699 10.9668 29.25 10.2417 29.25 9.50006C29.25 8.5055 29.6451 7.55167 30.3484 6.84841C31.0516 6.14514 32.0054 5.75006 33 5.75006ZM30.8438 17.0001H35.1562C35.9099 22.1675 37.3475 27.2117 39.4313 32.0001H26.5687C28.6569 27.2133 30.0947 22.1685 30.8438 17.0001ZM24.15 39.5001L25.0875 35.7501H40.9125L41.85 39.5001H24.15Z" fill="#6A0F65"/>
</g>
<defs>
<clipPath id="clip0_62_2648">
<rect width="60" height="60" fill="white" transform="translate(3 2)"/>
</clipPath>
</defs>
</svg>
