<svg width="24" height="24" viewBox="0 0 24 24" fill="none" xmlns="http://www.w3.org/2000/svg">
<path fill-rule="evenodd" clip-rule="evenodd" d="M11 6.00011C10.5404 6.00011 10.0852 6.09064 9.66061 6.26653C9.23597 6.44242 8.85013 6.70023 8.52513 7.02523C8.20012 7.35024 7.94231 7.73608 7.76642 8.16072C7.59053 8.58536 7.5 9.04048 7.5 9.50011C7.5 9.95973 7.59053 10.4149 7.76642 10.8395C7.94231 11.2641 8.20012 11.65 8.52513 11.975C8.85013 12.3 9.23597 12.5578 9.66061 12.7337C10.0852 12.9096 10.5404 13.0001 11 13.0001C11.9283 13.0001 12.8185 12.6314 13.4749 11.975C14.1313 11.3186 14.5 10.4284 14.5 9.50011C14.5 8.57185 14.1313 7.68161 13.4749 7.02523C12.8185 6.36886 11.9283 6.00011 11 6.00011ZM9.5 14.0001C8.43913 14.0001 7.42172 14.4215 6.67157 15.1717C5.92143 15.9218 5.5 16.9392 5.5 18.0001C5.5 18.5305 5.71071 19.0392 6.08579 19.4143C6.46086 19.7894 6.96957 20.0001 7.5 20.0001H14.5C15.0304 20.0001 15.5391 19.7894 15.9142 19.4143C16.2893 19.0392 16.5 18.5305 16.5 18.0001C16.5 16.9392 16.0786 15.9218 15.3284 15.1717C14.5783 14.4215 13.5609 14.0001 12.5 14.0001H9.5ZM16.32 10.9041C16.6379 9.69345 16.5341 8.41063 16.0257 7.26682C15.5174 6.12301 14.6347 5.18638 13.523 4.61111C13.9466 4.32162 14.4287 4.12882 14.9351 4.04634C15.4415 3.96387 15.9599 3.99374 16.4535 4.13385C16.947 4.27395 17.4038 4.52087 17.7913 4.8571C18.1789 5.19333 18.4878 5.61066 18.6961 6.07953C18.9045 6.54841 19.0072 7.05735 18.997 7.57034C18.9868 8.08332 18.864 8.58778 18.6372 9.04801C18.4104 9.50824 18.0851 9.91298 17.6845 10.2336C17.2839 10.5541 16.8178 10.7827 16.319 10.9031L16.32 10.9041ZM18.5 18.0001H19C19.5304 18.0001 20.0391 17.7894 20.4142 17.4143C20.7893 17.0392 21 16.5305 21 16.0001C21 14.9392 20.5786 13.9218 19.8284 13.1717C19.0783 12.4215 18.0609 12.0001 17 12.0001H15.9C15.764 12.2665 15.6064 12.5213 15.429 12.7621C16.3606 13.283 17.1364 14.043 17.6763 14.9638C18.2161 15.8846 18.5005 16.9327 18.5 18.0001ZM3 7.50011C2.99985 6.8629 3.17366 6.23773 3.50268 5.69204C3.8317 5.14635 4.30346 4.70083 4.86707 4.40354C5.43068 4.10625 6.06476 3.96846 6.70092 4.00504C7.33708 4.04162 7.95118 4.25117 8.477 4.61111C7.36425 5.18513 6.48066 6.12165 5.97227 7.26589C5.46389 8.41012 5.36114 9.69357 5.681 10.9041C4.91688 10.72 4.23694 10.2842 3.75062 9.6667C3.26431 9.04923 2.99991 8.28609 3 7.50011ZM6.1 12.0001H5C3.93913 12.0001 2.92172 12.4215 2.17157 13.1717C1.42143 13.9218 1 14.9392 1 16.0001C1 16.5305 1.21071 17.0392 1.58579 17.4143C1.96086 17.7894 2.46957 18.0001 3 18.0001H3.5C3.49952 16.9327 3.78388 15.8846 4.32373 14.9638C4.86358 14.043 5.63935 13.283 6.571 12.7621C6.39356 12.5213 6.23604 12.2665 6.1 12.0001Z" fill="#6A0F65"/>
</svg>
